<mxfile host="app.diagrams.net" modified="2024-07-10T07:09:03.403Z" agent="Mozilla/5.0 (Windows NT 10.0; Win64; x64) AppleWebKit/537.36 (KHTML, like Gecko) Chrome/114.0.0.0 Safari/537.36" etag="mI9FN87jRb3RtgYAtQ3K" version="24.6.4" type="github">
  <diagram name="第 1 页" id="7JeuPzp4tpS-xguqHnoi">
    <mxGraphModel dx="1434" dy="764" grid="1" gridSize="10" guides="1" tooltips="1" connect="1" arrows="1" fold="1" page="1" pageScale="1" pageWidth="827" pageHeight="1169" math="0" shadow="0">
      <root>
        <mxCell id="0" />
        <mxCell id="1" parent="0" />
        <mxCell id="PipySYU1FSYKtwZIrlrl-1" value="代码库" style="rounded=0;whiteSpace=wrap;html=1;" vertex="1" parent="1">
          <mxGeometry x="480" y="380" width="110" height="50" as="geometry" />
        </mxCell>
        <mxCell id="PipySYU1FSYKtwZIrlrl-5" style="rounded=0;orthogonalLoop=1;jettySize=auto;html=1;exitX=1;exitY=0.5;exitDx=0;exitDy=0;entryX=0;entryY=0.5;entryDx=0;entryDy=0;" edge="1" parent="1" source="PipySYU1FSYKtwZIrlrl-2" target="PipySYU1FSYKtwZIrlrl-1">
          <mxGeometry relative="1" as="geometry" />
        </mxCell>
        <mxCell id="PipySYU1FSYKtwZIrlrl-2" value="火眼机器1" style="rounded=0;whiteSpace=wrap;html=1;" vertex="1" parent="1">
          <mxGeometry x="30" y="295" width="110" height="50" as="geometry" />
        </mxCell>
        <mxCell id="PipySYU1FSYKtwZIrlrl-6" style="rounded=0;orthogonalLoop=1;jettySize=auto;html=1;exitX=1;exitY=0.5;exitDx=0;exitDy=0;entryX=0;entryY=0.75;entryDx=0;entryDy=0;" edge="1" parent="1" source="PipySYU1FSYKtwZIrlrl-3" target="PipySYU1FSYKtwZIrlrl-1">
          <mxGeometry relative="1" as="geometry" />
        </mxCell>
        <mxCell id="PipySYU1FSYKtwZIrlrl-3" value="火眼机器2" style="rounded=0;whiteSpace=wrap;html=1;" vertex="1" parent="1">
          <mxGeometry x="30" y="385" width="110" height="50" as="geometry" />
        </mxCell>
        <mxCell id="PipySYU1FSYKtwZIrlrl-7" style="rounded=0;orthogonalLoop=1;jettySize=auto;html=1;exitX=1;exitY=0.5;exitDx=0;exitDy=0;entryX=0;entryY=0.75;entryDx=0;entryDy=0;" edge="1" parent="1" source="PipySYU1FSYKtwZIrlrl-4" target="PipySYU1FSYKtwZIrlrl-1">
          <mxGeometry relative="1" as="geometry" />
        </mxCell>
        <mxCell id="PipySYU1FSYKtwZIrlrl-4" value="火眼机器N" style="rounded=0;whiteSpace=wrap;html=1;" vertex="1" parent="1">
          <mxGeometry x="30" y="465" width="110" height="50" as="geometry" />
        </mxCell>
        <mxCell id="PipySYU1FSYKtwZIrlrl-9" style="rounded=0;orthogonalLoop=1;jettySize=auto;html=1;entryX=0.5;entryY=0;entryDx=0;entryDy=0;" edge="1" parent="1" source="PipySYU1FSYKtwZIrlrl-8" target="PipySYU1FSYKtwZIrlrl-1">
          <mxGeometry relative="1" as="geometry" />
        </mxCell>
        <mxCell id="PipySYU1FSYKtwZIrlrl-8" value="火眼大仓库机器" style="rounded=0;whiteSpace=wrap;html=1;" vertex="1" parent="1">
          <mxGeometry x="230" y="90" width="110" height="50" as="geometry" />
        </mxCell>
        <mxCell id="PipySYU1FSYKtwZIrlrl-10" value="1. 手动上机器 git clone 一次&lt;br&gt;2. 后续是每天定时任务git pull，仓库不删" style="text;html=1;align=center;verticalAlign=middle;whiteSpace=wrap;rounded=0;" vertex="1" parent="1">
          <mxGeometry x="340" y="170" width="310" height="50" as="geometry" />
        </mxCell>
        <mxCell id="PipySYU1FSYKtwZIrlrl-11" value="多台机器每天各自领一些仓库&lt;br&gt;git clone -&amp;gt; 分析统计 -&amp;gt; 删除仓库（本地磁盘不够大）" style="text;html=1;align=center;verticalAlign=middle;whiteSpace=wrap;rounded=0;" vertex="1" parent="1">
          <mxGeometry x="210" y="470" width="350" height="90" as="geometry" />
        </mxCell>
      </root>
    </mxGraphModel>
  </diagram>
</mxfile>
